<?xml version="1.0" encoding="UTF-8" standalone="no"?>
<!DOCTYPE svg PUBLIC "-//W3C//DTD SVG 1.1//EN"
 "http://www.w3.org/Graphics/SVG/1.1/DTD/svg11.dtd">
<!-- Generated by graphviz version 2.48.0 (0)
 -->
<!-- Title: comments Pages: 1 -->
<svg width="805pt" height="940pt"
 viewBox="0.00 0.00 805.00 939.85" xmlns="http://www.w3.org/2000/svg" xmlns:xlink="http://www.w3.org/1999/xlink">
<g id="graph0" class="graph" transform="scale(1 1) rotate(0) translate(4 935.85)">
<title>comments</title>
<polygon fill="white" stroke="transparent" points="-4,4 -4,-935.85 801,-935.85 801,4 -4,4"/>
<!-- A -->
<g id="node1" class="node">
<title>A</title>
<ellipse fill="#7ccd7c" stroke="black" cx="275" cy="-886.35" rx="45.49" ry="45.49"/>
<text text-anchor="middle" x="275" y="-882.65" font-family="Times,serif" font-size="14.00">Normal</text>
</g>
<!-- A&#45;&gt;A -->
<g id="edge2" class="edge">
<title>A&#45;&gt;A</title>
<path fill="none" stroke="black" d="M318.03,-901.24C329.65,-900.45 338.5,-895.49 338.5,-886.35 338.5,-880.07 334.32,-875.76 327.93,-873.42"/>
<polygon fill="black" stroke="black" points="328.52,-869.97 318.03,-871.46 327.16,-876.84 328.52,-869.97"/>
<text text-anchor="middle" x="331.65" y="-904.5" font-family="Times,serif" font-size="12.00">else</text>
</g>
<!-- B -->
<g id="node2" class="node">
<title>B</title>
<ellipse fill="#7ccd7c" stroke="black" cx="307" cy="-656.11" rx="36.29" ry="36.29"/>
<text text-anchor="middle" x="307" y="-652.41" font-family="Times,serif" font-size="14.00">Slash</text>
</g>
<!-- A&#45;&gt;B -->
<g id="edge1" class="edge">
<title>A&#45;&gt;B</title>
<path fill="none" stroke="black" d="M275.76,-840.8C279.71,-800.58 287.96,-741.72 295.29,-701.54"/>
<polygon fill="black" stroke="black" points="298.77,-701.97 297.18,-691.5 291.9,-700.68 298.77,-701.97"/>
<text text-anchor="middle" x="283" y="-769.34" font-family="Times,serif" font-size="12.00">/</text>
</g>
<!-- F -->
<g id="node6" class="node">
<title>F</title>
<ellipse fill="#7ccd7c" stroke="black" cx="116" cy="-656.11" rx="73.39" ry="73.39"/>
<text text-anchor="middle" x="116" y="-652.41" font-family="Times,serif" font-size="14.00">String Literal</text>
</g>
<!-- A&#45;&gt;F -->
<g id="edge3" class="edge">
<title>A&#45;&gt;F</title>
<path fill="none" stroke="black" d="M245.84,-850.69C221.5,-818.25 186.63,-768.82 159.1,-728.03"/>
<polygon fill="black" stroke="black" points="162.01,-726.08 153.52,-719.73 156.2,-729.98 162.01,-726.08"/>
<text text-anchor="middle" x="141.52" y="-789.31" font-family="Times,serif" font-size="12.00">double quote mark</text>
</g>
<!-- H -->
<g id="node8" class="node">
<title>H</title>
<ellipse fill="#7ccd7c" stroke="black" cx="704" cy="-656.11" rx="74.99" ry="74.99"/>
<text text-anchor="middle" x="704" y="-652.41" font-family="Times,serif" font-size="14.00">Begin of Char</text>
</g>
<!-- A&#45;&gt;H -->
<g id="edge4" class="edge">
<title>A&#45;&gt;H</title>
<path fill="none" stroke="black" d="M320.59,-885.4C390.49,-883.28 525.46,-870.21 615,-804.85 639.23,-787.17 658.13,-760.7 672.15,-735.02"/>
<polygon fill="black" stroke="black" points="675.35,-736.47 676.91,-725.99 669.15,-733.21 675.35,-736.47"/>
<text text-anchor="middle" x="460.02" y="-857.68" font-family="Times,serif" font-size="12.00">single quote mark</text>
</g>
<!-- B&#45;&gt;A -->
<g id="edge6" class="edge">
<title>B&#45;&gt;A</title>
<path fill="none" stroke="black" d="M307.07,-692.64C303.81,-730.01 295.76,-789.22 288.27,-832.16"/>
<polygon fill="black" stroke="black" points="284.8,-831.69 286.48,-842.15 291.69,-832.92 284.8,-831.69"/>
<text text-anchor="middle" x="325.71" y="-771.3" font-family="Times,serif" font-size="12.00">not / or *</text>
</g>
<!-- C -->
<g id="node3" class="node">
<title>C</title>
<ellipse fill="#7ccd7c" stroke="black" cx="250" cy="-381.68" rx="89.88" ry="89.88"/>
<text text-anchor="middle" x="250" y="-377.98" font-family="Times,serif" font-size="14.00">Comment Type 1</text>
</g>
<!-- B&#45;&gt;C -->
<g id="edge5" class="edge">
<title>B&#45;&gt;C</title>
<path fill="none" stroke="black" d="M299.72,-620.33C292.32,-584.97 280.52,-528.56 270.27,-479.58"/>
<polygon fill="black" stroke="black" points="273.65,-478.64 268.18,-469.57 266.8,-480.08 273.65,-478.64"/>
<text text-anchor="middle" x="282" y="-548.56" font-family="Times,serif" font-size="12.00">/</text>
</g>
<!-- D -->
<g id="node4" class="node">
<title>D</title>
<ellipse fill="#7ccd7c" stroke="black" cx="465" cy="-381.68" rx="89.88" ry="89.88"/>
<text text-anchor="middle" x="465" y="-377.98" font-family="Times,serif" font-size="14.00">Comment Type 2</text>
</g>
<!-- B&#45;&gt;D -->
<g id="edge9" class="edge">
<title>B&#45;&gt;D</title>
<path fill="none" stroke="black" d="M324.97,-624.12C346.81,-586.47 384.55,-521.4 415.35,-468.29"/>
<polygon fill="black" stroke="black" points="418.44,-469.94 420.42,-459.54 412.38,-466.43 418.44,-469.94"/>
<text text-anchor="middle" x="369.16" y="-545.3" font-family="Times,serif" font-size="12.00">*</text>
</g>
<!-- C&#45;&gt;A -->
<g id="edge8" class="edge">
<title>C&#45;&gt;A</title>
<path fill="none" stroke="black" d="M244.77,-471.6C243.75,-495.24 243,-520.77 243,-544.37 243,-767.85 243,-767.85 243,-767.85 243,-790.11 248.41,-813.93 254.78,-834.27"/>
<polygon fill="black" stroke="black" points="251.52,-835.54 257.97,-843.95 258.17,-833.35 251.52,-835.54"/>
<text text-anchor="middle" x="207" y="-743.32" font-family="Times,serif" font-size="12.00">backslash n</text>
</g>
<!-- C&#45;&gt;C -->
<g id="edge7" class="edge">
<title>C&#45;&gt;C</title>
<path fill="none" stroke="black" d="M337.47,-402.76C349.59,-399.29 357.69,-392.26 357.69,-381.68 357.69,-374.24 353.69,-368.55 347.09,-364.63"/>
<polygon fill="black" stroke="black" points="348.04,-361.23 337.47,-360.59 345.34,-367.69 348.04,-361.23"/>
<text text-anchor="middle" x="360.3" y="-368.78" font-family="Times,serif" font-size="12.00">else</text>
</g>
<!-- D&#45;&gt;D -->
<g id="edge10" class="edge">
<title>D&#45;&gt;D</title>
<path fill="none" stroke="black" d="M552.47,-402.76C564.59,-399.29 572.69,-392.26 572.69,-381.68 572.69,-374.24 568.69,-368.55 562.09,-364.63"/>
<polygon fill="black" stroke="black" points="563.04,-361.23 552.47,-360.59 560.34,-367.69 563.04,-361.23"/>
<text text-anchor="middle" x="575.3" y="-368.78" font-family="Times,serif" font-size="12.00">else</text>
</g>
<!-- E -->
<g id="node5" class="node">
<title>E</title>
<ellipse fill="#7ccd7c" stroke="black" cx="465" cy="-90.99" rx="90.98" ry="90.98"/>
<text text-anchor="middle" x="465" y="-87.29" font-family="Times,serif" font-size="14.00">End Of Comment</text>
</g>
<!-- D&#45;&gt;E -->
<g id="edge11" class="edge">
<title>D&#45;&gt;E</title>
<path fill="none" stroke="black" d="M458.72,-292.1C458.16,-260.54 458.1,-224.78 458.54,-192.31"/>
<polygon fill="black" stroke="black" points="462.04,-191.95 458.7,-181.9 455.04,-191.84 462.04,-191.95"/>
<text text-anchor="middle" x="454.75" y="-240.39" font-family="Times,serif" font-size="12.00">*</text>
</g>
<!-- E&#45;&gt;A -->
<g id="edge13" class="edge">
<title>E&#45;&gt;A</title>
<path fill="none" stroke="black" d="M374.79,-104.83C239.57,-126.65 0,-176.39 0,-254.98 0,-767.85 0,-767.85 0,-767.85 0,-862.14 138.38,-881.78 218.81,-885.24"/>
<polygon fill="black" stroke="black" points="219.16,-888.75 229.28,-885.61 219.41,-881.76 219.16,-888.75"/>
<text text-anchor="middle" x="134.68" y="-162.02" font-family="Times,serif" font-size="12.00">/</text>
</g>
<!-- E&#45;&gt;D -->
<g id="edge12" class="edge">
<title>E&#45;&gt;D</title>
<path fill="none" stroke="black" d="M471.3,-181.9C471.85,-213.57 471.89,-249.34 471.44,-281.72"/>
<polygon fill="black" stroke="black" points="467.94,-282.05 471.28,-292.1 474.94,-282.16 467.94,-282.05"/>
<text text-anchor="middle" x="485.75" y="-240.5" font-family="Times,serif" font-size="12.00">not /</text>
</g>
<!-- F&#45;&gt;A -->
<g id="edge17" class="edge">
<title>F&#45;&gt;A</title>
<path fill="none" stroke="black" d="M161.49,-713.9C189.3,-752.11 223.88,-801.9 247.59,-837.98"/>
<polygon fill="black" stroke="black" points="244.68,-839.91 253.08,-846.37 250.54,-836.09 244.68,-839.91"/>
<text text-anchor="middle" x="150.35" y="-769.68" font-family="Times,serif" font-size="12.00">double quote mark</text>
</g>
<!-- F&#45;&gt;F -->
<g id="edge14" class="edge">
<title>F&#45;&gt;F</title>
<path fill="none" stroke="black" d="M186.93,-675.37C199.05,-672.73 207.44,-666.32 207.44,-656.11 207.44,-648.94 203.29,-643.63 196.62,-640.2"/>
<polygon fill="black" stroke="black" points="197.53,-636.81 186.93,-636.86 195.24,-643.43 197.53,-636.81"/>
<text text-anchor="middle" x="207.77" y="-643.68" font-family="Times,serif" font-size="12.00">any</text>
</g>
<!-- G -->
<g id="node7" class="node">
<title>G</title>
<ellipse fill="#7ccd7c" stroke="black" cx="85" cy="-381.68" rx="57.39" ry="57.39"/>
<text text-anchor="middle" x="85" y="-377.98" font-family="Times,serif" font-size="14.00">Backslash</text>
</g>
<!-- F&#45;&gt;G -->
<g id="edge15" class="edge">
<title>F&#45;&gt;G</title>
<path fill="none" stroke="black" d="M101.88,-583.89C96.11,-542.18 90.2,-489.84 86.66,-449"/>
<polygon fill="black" stroke="black" points="90.13,-448.56 85.81,-438.88 83.16,-449.14 90.13,-448.56"/>
<text text-anchor="middle" x="62.38" y="-514.58" font-family="Times,serif" font-size="12.00">backslash</text>
</g>
<!-- G&#45;&gt;F -->
<g id="edge16" class="edge">
<title>G&#45;&gt;F</title>
<path fill="none" stroke="black" d="M96.83,-437.87C102.54,-476.52 108.73,-528.83 112.86,-572.44"/>
<polygon fill="black" stroke="black" points="109.38,-572.83 113.78,-582.46 116.35,-572.18 109.38,-572.83"/>
<text text-anchor="middle" x="95.28" y="-500.83" font-family="Times,serif" font-size="12.00">any</text>
</g>
<!-- I -->
<g id="node9" class="node">
<title>I</title>
<ellipse fill="#7ccd7c" stroke="black" cx="699" cy="-381.68" rx="69.59" ry="69.59"/>
<text text-anchor="middle" x="699" y="-377.98" font-family="Times,serif" font-size="14.00">Escape Char</text>
</g>
<!-- H&#45;&gt;I -->
<g id="edge18" class="edge">
<title>H&#45;&gt;I</title>
<path fill="none" stroke="black" d="M702.64,-581.03C701.96,-544.16 701.15,-499.56 700.46,-461.99"/>
<polygon fill="black" stroke="black" points="703.95,-461.53 700.26,-451.6 696.95,-461.66 703.95,-461.53"/>
<text text-anchor="middle" x="670.96" y="-519.9" font-family="Times,serif" font-size="12.00">backslash</text>
</g>
<!-- J -->
<g id="node10" class="node">
<title>J</title>
<ellipse fill="#7ccd7c" stroke="black" cx="699" cy="-90.99" rx="57.39" ry="57.39"/>
<text text-anchor="middle" x="699" y="-87.29" font-family="Times,serif" font-size="14.00">Character</text>
</g>
<!-- H&#45;&gt;J -->
<g id="edge20" class="edge">
<title>H&#45;&gt;J</title>
<path fill="none" stroke="black" d="M757.02,-602.84C777.91,-576.77 797,-543.36 797,-508.37 797,-508.37 797,-508.37 797,-254.98 797,-211.64 771.23,-169.89 746.12,-139.5"/>
<polygon fill="black" stroke="black" points="748.57,-136.98 739.43,-131.63 743.24,-141.51 748.57,-136.98"/>
<text text-anchor="middle" x="780.5" y="-258.38" font-family="Times,serif" font-size="12.00">other</text>
</g>
<!-- I&#45;&gt;J -->
<g id="edge19" class="edge">
<title>I&#45;&gt;J</title>
<path fill="none" stroke="black" d="M699,-311.9C699,-265.54 699,-204.7 699,-158.76"/>
<polygon fill="black" stroke="black" points="702.5,-158.61 699,-148.61 695.5,-158.61 702.5,-158.61"/>
<text text-anchor="middle" x="688" y="-233.87" font-family="Times,serif" font-size="12.00">any</text>
</g>
<!-- J&#45;&gt;A -->
<g id="edge21" class="edge">
<title>J&#45;&gt;A</title>
<path fill="none" stroke="black" d="M658.57,-131.63C631.58,-162.44 601,-207.77 601,-254.98 601,-767.85 601,-767.85 601,-767.85 601,-824.75 423.01,-861.72 330.07,-877.14"/>
<polygon fill="black" stroke="black" points="329.29,-873.72 319.99,-878.78 330.42,-880.63 329.29,-873.72"/>
<text text-anchor="middle" x="546.5" y="-554.89" font-family="Times,serif" font-size="12.00">single quote mark</text>
</g>
</g>
</svg>
